<svg width="49" height="49" viewBox="0 0 49 49" fill="none" xmlns="http://www.w3.org/2000/svg">
<path d="M21.6064 0.101452C10.9814 1.44911 2.66113 9.04676 0.454102 19.4569C-0.151367 22.3085 -0.151367 26.3319 0.454102 29.203C2.48535 38.7929 9.8291 46.1366 19.4385 48.1679C22.0752 48.7147 26.1377 48.7733 28.6768 48.2655C37.1143 46.6249 43.8525 41.0585 46.9385 33.2069C48.1104 30.2382 48.5791 27.7186 48.5791 24.3202C48.5791 22.1522 48.4814 20.9999 48.1494 19.4374C46.0986 9.73036 38.5205 2.24989 28.833 0.413952C26.7627 0.0233269 23.4229 -0.113392 21.6064 0.101452ZM33.1885 9.71083C36.2354 10.6288 38.1299 12.5233 39.0869 15.6288C39.3994 16.6835 39.4385 17.5819 39.4385 24.3202C39.4385 31.0585 39.3994 31.9569 39.0869 33.0116C38.0908 36.2147 36.04 38.1874 32.8955 38.9882C32.0752 39.203 30.0635 39.2616 24.3018 39.2616C18.54 39.2616 16.5283 39.203 15.708 38.9882C12.5635 38.1874 10.5127 36.2147 9.5166 33.0116C9.2041 31.9569 9.16504 31.0585 9.16504 24.3202C9.16504 17.5819 9.2041 16.6835 9.5166 15.6288C10.5127 12.4061 12.7002 10.2968 15.708 9.6913C16.2939 9.57411 16.958 9.43739 17.1729 9.39833C17.3877 9.35926 20.8643 9.33973 24.8877 9.35926C30.7471 9.39833 32.4072 9.47645 33.1885 9.71083Z" fill="#735D8C"/>
<path d="M16.9775 12.4061C14.2626 12.8163 12.7001 14.3983 12.1728 17.1913C12.0361 17.8944 11.997 20.8436 12.0361 25.0819L12.0947 31.8397L12.6611 33.0702C13.3642 34.5741 14.4189 35.5311 15.9033 35.9999C16.8408 36.2928 17.9345 36.3319 24.3017 36.3319C30.6689 36.3319 31.7626 36.2928 32.7001 35.9999C34.1845 35.5311 35.2392 34.5741 35.9423 33.0702L36.5087 31.8397V24.3202V16.8006L35.9423 15.5702C35.2587 14.1053 34.2041 13.1092 32.7978 12.66C31.9775 12.3866 30.747 12.328 24.8876 12.2889C21.0791 12.2694 17.5244 12.3085 16.9775 12.4061ZM33.0712 15.0428C34.0283 15.5311 34.1845 16.8006 33.3837 17.5819C32.3876 18.5975 30.6689 17.8553 30.6689 16.41C30.6689 15.8436 30.8056 15.5702 31.2158 15.2186C31.8212 14.6717 32.3095 14.6327 33.0712 15.0428ZM26.0595 16.5272C28.247 17.035 30.4541 18.7733 31.4306 20.7655C32.9931 23.9686 32.3486 27.6014 29.79 30.0428C27.8759 31.8592 25.5126 32.621 23.0712 32.1913C17.7978 31.2928 14.8095 25.6092 17.0947 20.8631C17.6416 19.7108 19.1845 18.0506 20.3173 17.3866C21.9384 16.4295 24.1845 16.0975 26.0595 16.5272Z" fill="#735D8C"/>
<path d="M22.4658 19.6327C20.6104 20.3553 19.2236 22.367 19.2236 24.3202C19.2236 26.2928 20.6299 28.3045 22.5049 29.0077C23.7939 29.496 24.79 29.496 26.1182 29.0077C27.9541 28.3241 29.3799 26.2928 29.3799 24.3202C29.3799 22.3475 27.9541 20.3163 26.1182 19.6327C24.8096 19.1444 23.7158 19.1444 22.4658 19.6327Z" fill="#735D8C"/>
</svg>
