<svg width="49" height="49" viewBox="0 0 49 49" fill="none" xmlns="http://www.w3.org/2000/svg">
<path d="M20.7031 0.197262C12.5781 1.56445 6.05469 6.33007 2.46094 13.5176C0.703125 17.0332 0 20.1191 0 24.3379C0 26.5059 0.0976562 27.834 0.351562 29.0254C1.42578 34.084 3.51562 37.9512 7.10938 41.5254C10.7422 45.1582 14.5898 47.2285 19.6289 48.3027C21.9336 48.791 26.6992 48.791 29.0039 48.3027C34.082 47.209 37.9102 45.1387 41.5039 41.5449C45.1367 37.9121 47.207 34.0645 48.2812 29.0254C48.7695 26.7207 48.7695 21.9551 48.2812 19.6504C47.207 14.6113 45.1172 10.7441 41.5234 7.13086C37.9102 3.51757 34.082 1.44726 29.1016 0.412106C27.0117 -0.0371132 22.7148 -0.134769 20.7031 0.197262ZM28.6133 9.20117C32.7734 10.2168 36.7383 13.4785 38.5938 17.4238C39.668 19.6895 40 21.2715 40 23.9473C39.9805 26.6621 39.5312 28.5371 38.3789 30.7441C34.6289 37.9707 26.1133 40.9785 18.4375 37.7949L17.0898 37.248L12.9883 38.5371C10.7422 39.2598 8.82812 39.7871 8.76953 39.7285C8.71094 39.6504 9.25781 37.873 10.0195 35.7441L11.3672 31.877L10.7227 30.5098C8.28125 25.373 8.90625 19.2988 12.2852 14.8262C14.5312 11.8574 18.0078 9.70898 21.7188 9.00586C23.5547 8.65429 26.7383 8.75195 28.6133 9.20117Z" fill="#735D8C"/>
<path d="M21.875 11.3301C19.2187 11.9551 17.1094 13.127 15.2344 15.0605C13.8477 16.4863 12.9492 17.9316 12.2461 19.8848C11.7969 21.1348 11.7383 21.623 11.7188 23.752C11.7188 26.584 12.1289 28.166 13.3789 30.2559L14.1016 31.4473L13.3594 33.6934C12.9492 34.9238 12.6367 35.959 12.6953 36.0176C12.7344 36.0566 13.8477 35.7832 15.1367 35.373L17.5195 34.6504L18.7305 35.2363C21.0937 36.3887 21.8359 36.5449 24.8047 36.5449C27.4023 36.5254 27.6172 36.5059 29.1992 35.9004C33.0859 34.416 35.7812 31.6621 37.1289 27.7559C37.5977 26.3887 37.6758 25.9004 37.6758 23.9473C37.6758 22.0527 37.5781 21.4668 37.1484 20.1191C35.8594 16.2129 32.6172 12.9707 28.7305 11.7207C26.7969 11.0957 23.6914 10.9199 21.875 11.3301ZM21.1719 19.2012L22.0312 21.1738L21.1914 22.1699L20.3516 23.1465L20.9961 24.1426C21.8359 25.4512 23.457 26.877 25.0391 27.6777L26.3086 28.3223L27.3242 27.1895L28.3203 26.0566L30.2734 26.9355C32.4023 27.8926 32.5391 28.0684 32.1289 29.3184C30.5664 34.0645 22.5 31.4277 17.8906 24.6699C16.1328 22.0723 16.0742 19.4551 17.7344 17.7363C18.3008 17.1504 18.457 17.0918 19.3359 17.1504L20.3125 17.209L21.1719 19.2012Z" fill="#735D8C"/>
</svg>
