<svg width="50" height="50" viewBox="0 0 50 50" fill="none" xmlns="http://www.w3.org/2000/svg">
<path d="M22.2461 0.101452C16.5234 0.745983 11.4258 3.20692 7.28516 7.32801C2.51953 12.0741 0 18.1288 0 24.9061C0 31.6835 2.5 37.6796 7.30469 42.4843C12.1094 47.3085 18.1055 49.789 24.8828 49.7694C34.3555 49.7694 42.7344 44.6327 47.0312 36.2343C48.9258 32.5233 49.7461 29.1054 49.7461 24.9061C49.7461 18.0897 47.2852 12.1522 42.4609 7.32801C38.7891 3.63661 34.5117 1.37098 29.4336 0.413952C27.3633 0.0233269 24.1992 -0.113392 22.2461 0.101452ZM31.0156 12.7186C31.2305 13.285 31.1523 16.2147 30.8984 16.4686C30.7617 16.6054 30.1367 16.703 29.4531 16.703C27.9492 16.703 27.1484 16.9765 26.8555 17.6015C26.7383 17.8749 26.6406 18.91 26.6406 19.9257V21.7811H28.7695C30.293 21.7811 30.957 21.8593 31.1133 22.035C31.2695 22.2304 31.2695 22.7968 31.1133 24.0468C30.8203 26.7616 30.8984 26.664 28.5938 26.664H26.6406L26.6016 31.9765L26.543 37.3085L24.2578 37.3671L21.9531 37.4257V32.035V26.664H20.4297C19.5117 26.664 18.8086 26.5663 18.6719 26.4296C18.5156 26.2733 18.4375 25.4921 18.4375 24.2225C18.4375 22.953 18.5156 22.1718 18.6719 22.0155C18.8086 21.8788 19.4922 21.7811 20.4102 21.7811H21.9141L21.9922 18.9882C22.0508 16.4296 22.1094 16.1366 22.5781 15.2186C23.1836 14.0468 24.2383 13.1288 25.3711 12.7186C25.8789 12.5429 26.9922 12.4257 28.5156 12.4257C30.5078 12.4061 30.918 12.4647 31.0156 12.7186Z" fill="#735D8C"/>
</svg>
