<svg width="20" height="20" viewBox="0 0 20 20" fill="none" xmlns="http://www.w3.org/2000/svg">
<g clip-path="url(#clip0_34_94)">
<path d="M5.83335 1.66675H14.1667C16.4663 1.66675 18.3334 3.53377 18.3334 5.83341V14.1667C18.3334 16.4664 16.4663 18.3334 14.1667 18.3334H5.83335C3.53371 18.3334 1.66669 16.4664 1.66669 14.1667V5.83341C1.66669 3.53377 3.53371 1.66675 5.83335 1.66675V1.66675" stroke="#735D8C" stroke-width="1.66667" stroke-linecap="round" stroke-linejoin="round"/>
<path d="M13.3333 9.47508C13.5443 10.8976 12.8192 12.295 11.5347 12.9415C10.2502 13.588 8.69588 13.3379 7.67904 12.321C6.6622 11.3042 6.41209 9.74989 7.05861 8.46539C7.70514 7.18089 9.10253 6.45581 10.525 6.66675C11.9775 6.88213 13.118 8.0226 13.3333 9.47508M14.5833 5.41675H14.5917" stroke="#735D8C" stroke-width="1.66667" stroke-linecap="round" stroke-linejoin="round"/>
</g>
<defs>
<clipPath id="clip0_34_94">
<rect width="20" height="20" fill="white"/>
</clipPath>
</defs>
</svg>
